<svg width="94" height="25" viewBox="0 0 94 25" fill="none" xmlns="http://www.w3.org/2000/svg">
<path d="M19.5206 0H4.738C2.12127 0 0 2.12127 0 4.738V19.5206C0 22.1373 2.12127 24.2586 4.738 24.2586H19.5206C22.1373 24.2586 24.2586 22.1373 24.2586 19.5206V4.738C24.2586 2.12127 22.1373 0 19.5206 0Z" fill="#7857FF"/>
<path d="M8.28741 5.81531C7.81761 4.89324 6.68928 4.5266 5.76721 4.9964C4.84514 5.4662 4.4785 6.59453 4.9483 7.5166L10.5254 18.4627C10.9952 19.3848 12.1235 19.7514 13.0456 19.2816C13.9677 18.8118 14.3343 17.6835 13.8645 16.7614L8.28741 5.81531Z" fill="white"/>
<path d="M13.5315 5.81769C13.0617 4.89562 11.9334 4.52898 11.0113 4.99878C10.0893 5.46858 9.72264 6.59691 10.1924 7.51898L13.1371 13.2985C13.6069 14.2206 14.7353 14.5872 15.6573 14.1174C16.5794 13.6476 16.946 12.5193 16.4762 11.5972L13.5315 5.81769Z" fill="white"/>
<path d="M17.5261 4.73401C18.6775 4.73401 19.6109 5.66738 19.6109 6.81874C19.6109 7.97009 18.6775 8.90346 17.5261 8.90346C16.3748 8.90346 15.4414 7.97009 15.4414 6.81874C15.4414 5.66738 16.3748 4.73401 17.5261 4.73401Z" fill="#F79824"/>
<path d="M48.151 15.0039C45.9054 13.2211 45.9054 9.55726 48.151 7.77445C49.9797 6.32258 52.3613 6.32258 54.1899 7.77445C56.4354 9.55726 56.4354 13.2211 54.1899 15.0039C52.3613 16.4558 49.9797 16.4558 48.151 15.0039Z" stroke="black" stroke-width="3.07622"/>
<path d="M35.6934 5.10855L38.667 10.8488L38.6777 10.8673L38.6865 10.8478L38.6924 10.838L38.6982 10.8253L39.9766 8.17886L39.9844 8.16324L41.46 5.10855H44.8516L43.7939 7.29996L40.1123 14.9211L38.7842 17.6681L37.3809 14.9601L33.4316 7.33902L32.2754 5.10855H35.6934Z" fill="black" stroke="black" stroke-width="0.0217972"/>
<path d="M85.3477 5.3558V17.7401" stroke="black" stroke-width="3.07622"/>
<path d="M83.8594 6.8046H93.4652" stroke="black" stroke-width="3.07622"/>
<path d="M83.8594 16.1921H93.4652" stroke="black" stroke-width="3.07622"/>
<path d="M83.8594 11.5479H93.4652" stroke="black" stroke-width="3.07622"/>
<path d="M61.2539 5.19702V17.5813" stroke="black" stroke-width="3.07622"/>
<path d="M62.7617 13.1357C63.8435 13.1357 65.1313 13.253 66.2946 12.5114C67.6541 11.6448 68.6563 9.46404 66.8005 7.6084C65.7024 6.51013 63.6153 6.7277 62.7617 6.72768" stroke="black" stroke-width="3.07622"/>
<path d="M69.377 17.5562H65.8066V17.5641L62.915 12.8131L65.5244 11.2262L69.377 17.5562Z" fill="black" stroke="black" stroke-width="0.0217972"/>
<path d="M80.4959 15.123C78.671 16.5748 76.648 16.5748 74.8231 15.123C72.5824 13.3402 72.5824 9.67631 74.8231 7.8935C76.648 6.44163 78.671 6.44163 80.4959 7.8935" stroke="black" stroke-width="3.07622"/>
</svg>
