<svg width="144" height="26" viewBox="0 0 144 26" fill="none" xmlns="http://www.w3.org/2000/svg">
<path d="M12.1167 19.6504C16.2773 19.6504 19.6502 16.2776 19.6502 12.117C19.6502 7.95637 16.2773 4.58353 12.1167 4.58353C7.95609 4.58353 4.58325 7.95637 4.58325 12.117C4.58325 16.2776 7.95609 19.6504 12.1167 19.6504Z" fill="#D9D9D9"/>
<path d="M19.5206 0H4.738C2.12127 0 0 2.12127 0 4.738V19.5206C0 22.1373 2.12127 24.2586 4.738 24.2586H19.5206C22.1373 24.2586 24.2586 22.1373 24.2586 19.5206V4.738C24.2586 2.12127 22.1373 0 19.5206 0Z" fill="#7857FF"/>
<path d="M8.28814 5.81531C7.81834 4.89324 6.69001 4.5266 5.76794 4.9964C4.84587 5.4662 4.47924 6.59453 4.94904 7.5166L10.5261 18.4627C10.9959 19.3848 12.1243 19.7514 13.0463 19.2816C13.9684 18.8118 14.335 17.6835 13.8653 16.7614L8.28814 5.81531Z" fill="white"/>
<path d="M13.5311 5.81766C13.0613 4.89559 11.9329 4.52895 11.0109 4.99875C10.0888 5.46855 9.72216 6.59688 10.192 7.51895L13.1367 13.2985C13.6065 14.2205 14.7348 14.5872 15.6569 14.1174C16.5789 13.6476 16.9456 12.5192 16.4758 11.5972L13.5311 5.81766Z" fill="white"/>
<path d="M17.5252 4.73401C18.6765 4.73401 19.6099 5.66738 19.6099 6.81874C19.6099 7.97009 18.6765 8.90346 17.5252 8.90346C16.3738 8.90346 15.4404 7.97009 15.4404 6.81874C15.4404 5.66738 16.3738 4.73401 17.5252 4.73401Z" fill="#F79824"/>
<path d="M47.8936 16.9061C45.6481 15.1233 45.6481 11.4595 47.8936 9.67664C49.7224 8.22477 52.104 8.22477 53.9326 9.67664C56.1781 11.4595 56.1781 15.1233 53.9326 16.9061C52.104 18.358 49.7224 18.358 47.8936 16.9061Z" stroke="white" stroke-width="3.07622"/>
<path d="M35.4355 7.01074L38.4092 12.751L38.4199 12.7695L38.4287 12.75L38.4346 12.7402L38.4404 12.7275L39.7188 10.0811L39.7266 10.0654L41.2021 7.01074H44.5938L43.5361 9.20215L39.8545 16.8232L38.5264 19.5703L37.123 16.8623L33.1738 9.24121L32.0176 7.01074H35.4355Z" fill="white" stroke="white" stroke-width="0.0217972"/>
<path d="M85.0891 7.258V19.6423" stroke="white" stroke-width="3.07622"/>
<path d="M83.6018 8.70679H93.2076" stroke="white" stroke-width="3.07622"/>
<path d="M83.6018 18.0943H93.2076" stroke="white" stroke-width="3.07622"/>
<path d="M83.6018 13.4501H93.2076" stroke="white" stroke-width="3.07622"/>
<path d="M60.9951 7.09921V19.4835" stroke="white" stroke-width="3.07622"/>
<path d="M62.5039 15.0379C63.5857 15.0379 64.8735 15.1552 66.0368 14.4136C67.3963 13.547 68.3985 11.3662 66.5427 9.51059C65.4446 8.41232 63.3575 8.6299 62.5039 8.62987" stroke="white" stroke-width="3.07622"/>
<path d="M69.1191 19.4584H65.5488V19.4662L62.6572 14.7153L65.2666 13.1284L69.1191 19.4584Z" fill="white" stroke="white" stroke-width="0.0217972"/>
<path d="M80.2378 17.0252C78.4129 18.477 76.3899 18.477 74.5651 17.0252C72.3243 15.2424 72.3243 11.5785 74.5651 9.79569C76.3899 8.34382 78.4129 8.34382 80.2378 9.79569" stroke="white" stroke-width="3.07622"/>
</svg>
